<?xml version="1.0" standalone="no"?>
<!DOCTYPE svg PUBLIC "-//W3C//DTD SVG 20010904//EN"
 "http://www.w3.org/TR/2001/REC-SVG-20010904/DTD/svg10.dtd">
<svg version="1.0" xmlns="http://www.w3.org/2000/svg"
 width="470.000000pt" height="470.000000pt" viewBox="0 0 470.000000 470.000000"
 preserveAspectRatio="xMidYMid meet">
<metadata>
Created by potrace 1.14, written by Peter Selinger 2001-2017
</metadata>
<g transform="translate(0.000000,470.000000) scale(0.100000,-0.100000)"
fill="#000000" stroke="none">
<path d="M2209 4526 c-2 -2 -38 -7 -79 -10 -142 -12 -319 -52 -494 -113 -113
-39 -333 -143 -416 -198 -52 -34 -58 -36 -115 -30 -85 10 -245 14 -276 8 -17
-3 -33 -17 -45 -38 -20 -37 -15 -70 25 -175 12 -30 21 -59 21 -65 0 -5 -28
-39 -62 -75 -175 -186 -339 -453 -431 -701 -43 -115 -83 -250 -92 -310 -4 -24
-8 -46 -10 -49 -2 -4 -7 -29 -11 -56 -3 -27 -8 -58 -10 -69 -21 -103 -20 -454
1 -563 2 -10 6 -43 10 -73 4 -30 9 -57 11 -61 2 -4 9 -28 14 -55 6 -26 13 -59
16 -73 7 -34 78 -245 99 -295 50 -118 209 -402 245 -435 3 -3 32 -39 65 -80
105 -133 216 -240 395 -383 70 -56 254 -164 378 -223 88 -41 322 -126 382
-138 14 -2 59 -11 100 -20 274 -56 589 -56 880 -1 41 8 107 19 147 25 63 10
133 38 213 85 14 8 72 37 130 64 58 28 134 67 169 89 l64 39 48 -33 c112 -75
268 -102 390 -68 30 9 77 17 104 20 133 11 234 55 323 144 128 126 172 329
110 499 -11 31 -42 86 -68 123 l-48 66 24 23 c37 35 65 102 67 161 1 36 7 59
19 72 10 11 27 45 39 75 27 71 24 122 -21 336 -10 50 -17 106 -15 125 15 141
18 187 18 277 -1 344 -79 668 -235 975 -176 347 -413 613 -743 832 -172 115
-393 213 -640 286 -46 13 -234 49 -295 55 -64 7 -396 16 -401 11z"/>
</g>
</svg>
